<svg width="984" height="232" viewBox="0 0 984 232" fill="none" xmlns="http://www.w3.org/2000/svg">
<path d="M70.72 198.8C57.7067 198.8 46.4 195.92 36.8 190.16C27.2 184.507 19.7867 176.507 14.56 166.16C9.33333 155.813 6.72 143.6 6.72 129.52C6.72 124.187 7.36 118.267 8.64 111.76C10.0267 105.147 12.2133 98.5867 15.2 92.08C18.1867 85.4667 22.1867 79.44 27.2 74C32.2133 68.56 38.3467 64.1867 45.6 60.88C52.8533 57.4667 61.3867 55.76 71.2 55.76C79.6267 55.76 86.9867 56.8267 93.28 58.96C99.5733 60.9867 105.013 63.6 109.6 66.8C114.187 69.8933 117.973 73.1467 120.96 76.56C124.053 79.9733 126.507 83.12 128.32 86C130.133 88.7733 131.467 90.8 132.32 92.08L109.12 109.84C106.773 105.467 104 101.2 100.8 97.04C97.6 92.7733 93.6533 89.2533 88.96 86.48C84.2667 83.7067 78.4533 82.32 71.52 82.32C64.3733 82.32 58.4533 83.92 53.76 87.12C49.0667 90.32 45.3333 94.3733 42.56 99.28C39.8933 104.187 38.0267 109.413 36.96 114.96C35.8933 120.4 35.36 125.467 35.36 130.16C35.36 135.173 35.8933 140.133 36.96 145.04C38.0267 149.947 39.84 154.427 42.4 158.48C45.0667 162.533 48.5867 165.787 52.96 168.24C57.44 170.587 63.04 171.76 69.76 171.76C77.2267 171.76 83.3067 170.427 88 167.76C92.8 165.093 96.8 161.36 100 156.56C103.2 151.653 106.187 145.947 108.96 139.44L135.2 151.28C130.507 160.987 125.227 169.413 119.36 176.56C113.493 183.707 106.613 189.2 98.72 193.04C90.8267 196.88 81.4933 198.8 70.72 198.8ZM454.594 195.472C448.109 195.472 442.264 195.003 437.058 194.064C431.938 193.211 427.586 191.504 424.002 188.944C420.418 186.469 417.688 182.8 415.81 177.936C413.933 173.072 412.994 166.715 412.994 158.864C412.994 153.147 413.293 147.216 413.89 141.072C414.488 134.928 415.213 128.997 416.066 123.28C417.005 117.477 417.901 112.315 418.754 107.792C417.048 108.048 415.597 108.304 414.402 108.56L411.97 88.208C416.152 87.44 420.973 86.8 426.434 86.288C431.981 85.6907 437.826 85.1787 443.97 84.752C450.2 84.3253 456.386 84.0267 462.53 83.856C468.674 83.6 474.434 83.472 479.81 83.472C484.077 83.472 487.96 83.5573 491.458 83.728C495.042 83.8133 497.986 83.984 500.29 84.24L499.266 105.616C496.962 105.189 493.848 104.891 489.922 104.72C485.997 104.464 481.602 104.336 476.738 104.336C471.021 104.336 464.92 104.464 458.434 104.72C451.949 104.976 445.762 105.275 439.874 105.616C439.192 109.2 438.594 112.869 438.082 116.624C437.57 120.379 437.101 124.091 436.674 127.76C441.624 127.077 447.042 126.565 452.93 126.224C458.904 125.797 464.834 125.499 470.722 125.328C476.61 125.072 481.901 124.944 486.594 124.944C489.325 124.944 491.757 124.987 493.89 125.072C496.024 125.072 497.773 125.157 499.138 125.328L498.626 146.32C497.517 146.235 495.981 146.192 494.018 146.192C492.141 146.107 489.922 146.064 487.362 146.064C483.693 146.064 479.597 146.149 475.074 146.32C470.552 146.405 465.858 146.576 460.994 146.832C456.216 147.003 451.565 147.259 447.042 147.6C442.52 147.856 438.424 148.197 434.754 148.624C434.413 153.403 434.242 157.243 434.242 160.144C434.242 164.325 434.797 167.397 435.906 169.36C437.016 171.323 438.85 172.603 441.41 173.2C444.056 173.712 447.512 173.968 451.778 173.968C459.373 173.968 467.522 173.328 476.226 172.048C485.016 170.768 493.677 168.763 502.21 166.032L503.618 188.304C493.378 191.12 484.077 192.997 475.714 193.936C467.437 194.96 460.397 195.472 454.594 195.472Z" fill="#5FFF3B"/>
<path d="M186.816 196.496C179.99 196.496 174.016 195.387 168.896 193.168C163.862 190.949 159.68 187.92 156.352 184.08C153.024 180.155 150.55 175.675 148.928 170.64C147.307 165.605 146.496 160.315 146.496 154.768C146.496 149.136 147.478 143.931 149.44 139.152C151.488 134.288 154.262 130.064 157.76 126.48C161.344 122.896 165.526 120.123 170.304 118.16C175.083 116.112 180.288 115.088 185.92 115.088C191.808 115.088 197.27 116.112 202.304 118.16C207.339 120.208 211.734 123.067 215.488 126.736C219.243 130.405 222.144 134.715 224.192 139.664C226.326 144.613 227.392 149.989 227.392 155.792C227.392 168.677 223.851 178.704 216.768 185.872C209.686 192.955 199.702 196.496 186.816 196.496ZM186.688 175.76C192.918 175.76 197.654 174.011 200.896 170.512C204.224 167.013 205.888 161.979 205.888 155.408C205.888 149.52 204.096 144.784 200.512 141.2C196.928 137.616 192.235 135.824 186.432 135.824C182.934 135.824 179.734 136.763 176.832 138.64C173.931 140.432 171.584 142.864 169.792 145.936C168.086 148.923 167.232 152.251 167.232 155.92C167.232 159.163 167.872 162.32 169.152 165.392C170.518 168.464 172.651 170.981 175.552 172.944C178.454 174.821 182.166 175.76 186.688 175.76ZM269.681 196.112C265.244 196.112 260.892 195.344 256.625 193.808C252.444 192.272 248.647 189.883 245.233 186.64C241.905 183.483 239.26 179.515 237.297 174.736C235.335 169.872 234.353 164.197 234.353 157.712C234.353 150.373 235.463 144.059 237.681 138.768C239.985 133.392 243.015 128.997 246.769 125.584C250.524 122.085 254.705 119.483 259.313 117.776C263.921 116.069 268.529 115.216 273.137 115.216C275.868 115.216 278.471 115.429 280.945 115.856C283.42 116.197 285.724 116.709 287.857 117.392C288.113 111.163 288.412 104.891 288.753 98.576C289.18 92.2613 289.649 86.032 290.161 79.888L311.665 81.296C310.983 88.3787 310.385 96.016 309.873 104.208C309.361 112.315 308.977 120.592 308.721 129.04C308.551 137.488 308.465 145.723 308.465 153.744C308.465 161.253 308.551 168.421 308.721 175.248C308.977 181.989 309.276 188.133 309.617 193.68L287.473 195.344C287.388 193.723 287.345 192.144 287.345 190.608C284.871 192.229 282.14 193.552 279.153 194.576C276.252 195.6 273.095 196.112 269.681 196.112ZM254.961 156.56C254.961 160.997 255.815 164.496 257.521 167.056C259.228 169.531 261.319 171.28 263.793 172.304C266.268 173.328 268.657 173.84 270.961 173.84C273.692 173.84 276.423 173.243 279.153 172.048C281.884 170.853 284.444 168.763 286.833 165.776C286.833 164.752 286.833 163.771 286.833 162.832C286.833 155.92 286.919 148.837 287.089 141.584C283.079 138.085 278.727 136.336 274.033 136.336C272.071 136.336 269.98 136.635 267.761 137.232C265.543 137.829 263.452 138.896 261.489 140.432C259.612 141.883 258.033 143.931 256.753 146.576C255.559 149.136 254.961 152.464 254.961 156.56ZM360.581 196.24C352.389 196.24 345.179 194.619 338.949 191.376C332.805 188.219 327.984 183.781 324.485 178.064C321.072 172.347 319.365 165.733 319.365 158.224C319.365 153.701 320.133 148.965 321.669 144.016C323.205 138.981 325.68 134.288 329.093 129.936C332.507 125.584 336.987 122.043 342.533 119.312C348.165 116.581 354.992 115.216 363.013 115.216C368.816 115.216 373.68 115.856 377.605 117.136C381.616 118.416 384.859 120.08 387.333 122.128C389.893 124.176 391.813 126.352 393.093 128.656C394.459 130.96 395.355 133.179 395.781 135.312C396.293 137.36 396.549 139.067 396.549 140.432C396.549 148.709 393.051 155.109 386.053 159.632C379.141 164.069 369.328 166.288 356.613 166.288C353.712 166.288 350.939 166.16 348.293 165.904C345.733 165.648 343.344 165.349 341.125 165.008C342.747 169.275 345.435 172.432 349.189 174.48C352.944 176.443 356.827 177.424 360.837 177.424C366.64 177.424 371.76 176.4 376.197 174.352C380.635 172.219 384.816 168.976 388.741 164.624L400.133 181.008C397.403 183.227 394.331 185.531 390.917 187.92C387.589 190.309 383.493 192.272 378.629 193.808C373.765 195.429 367.749 196.24 360.581 196.24ZM363.397 134.416C358.363 134.416 353.925 135.696 350.085 138.256C346.245 140.816 343.429 144.187 341.637 148.368C343.771 148.709 345.861 149.008 347.909 149.264C350.043 149.435 352.133 149.52 354.181 149.52C356.059 149.52 358.192 149.349 360.581 149.008C363.056 148.667 365.445 148.155 367.749 147.472C370.139 146.789 372.101 145.936 373.637 144.912C375.173 143.803 375.941 142.523 375.941 141.072C375.941 140.389 375.6 139.536 374.917 138.512C374.235 137.488 372.997 136.549 371.205 135.696C369.413 134.843 366.811 134.416 363.397 134.416ZM518.449 195.216C518.193 187.707 517.98 180.752 517.809 174.352C517.724 167.952 517.681 161.637 517.681 155.408C517.681 149.179 517.724 142.949 517.809 136.72C517.98 130.405 518.236 123.664 518.577 116.496H540.209C539.868 120.336 539.569 124.219 539.313 128.144C542.215 124.475 545.671 121.445 549.681 119.056C553.692 116.581 558.428 115.344 563.889 115.344C569.265 115.344 573.66 116.24 577.073 118.032C580.572 119.824 583.303 122.299 585.265 125.456C587.313 128.613 588.764 132.24 589.617 136.336C590.556 140.347 591.153 144.699 591.409 149.392C591.665 154 591.793 158.651 591.793 163.344C591.793 168.464 591.708 173.371 591.537 178.064C591.367 182.757 591.196 186.683 591.025 189.84C590.855 192.997 590.727 194.875 590.641 195.472H569.137C569.308 191.973 569.479 188.261 569.649 184.336C569.82 180.325 569.991 176.4 570.161 172.56C570.332 168.635 570.417 165.093 570.417 161.936C570.417 143.76 567.473 134.672 561.585 134.672C556.721 134.672 552.284 136.805 548.273 141.072C544.348 145.253 541.063 150.544 538.417 156.944C538.417 157.797 538.417 158.651 538.417 159.504C538.417 163.6 538.417 167.867 538.417 172.304C538.503 176.656 538.588 180.837 538.673 184.848C538.844 188.773 538.972 192.187 539.057 195.088L518.449 195.216ZM636.556 196.112C632.119 196.112 627.767 195.344 623.5 193.808C619.319 192.272 615.522 189.883 612.108 186.64C608.78 183.483 606.135 179.515 604.172 174.736C602.21 169.872 601.228 164.197 601.228 157.712C601.228 150.373 602.338 144.059 604.556 138.768C606.86 133.392 609.89 128.997 613.644 125.584C617.399 122.085 621.58 119.483 626.188 117.776C630.796 116.069 635.404 115.216 640.012 115.216C642.743 115.216 645.346 115.429 647.82 115.856C650.295 116.197 652.599 116.709 654.732 117.392C654.988 111.163 655.287 104.891 655.628 98.576C656.055 92.2613 656.524 86.032 657.036 79.888L678.54 81.296C677.858 88.3787 677.26 96.016 676.748 104.208C676.236 112.315 675.852 120.592 675.596 129.04C675.426 137.488 675.34 145.723 675.34 153.744C675.34 161.253 675.426 168.421 675.596 175.248C675.852 181.989 676.151 188.133 676.492 193.68L654.348 195.344C654.263 193.723 654.22 192.144 654.22 190.608C651.746 192.229 649.015 193.552 646.028 194.576C643.127 195.6 639.97 196.112 636.556 196.112ZM621.836 156.56C621.836 160.997 622.69 164.496 624.396 167.056C626.103 169.531 628.194 171.28 630.668 172.304C633.143 173.328 635.532 173.84 637.836 173.84C640.567 173.84 643.298 173.243 646.028 172.048C648.759 170.853 651.319 168.763 653.708 165.776C653.708 164.752 653.708 163.771 653.708 162.832C653.708 155.92 653.794 148.837 653.964 141.584C649.954 138.085 645.602 136.336 640.908 136.336C638.946 136.336 636.855 136.635 634.636 137.232C632.418 137.829 630.327 138.896 628.364 140.432C626.487 141.883 624.908 143.931 623.628 146.576C622.434 149.136 621.836 152.464 621.836 156.56ZM792.166 103.312C792.166 102.544 792.124 101.776 792.038 101.008C792.038 100.155 792.038 99.216 792.038 98.192C792.038 95.4613 792.124 92.56 792.294 89.488C792.465 86.416 792.636 83.8133 792.806 81.68L815.59 82.064C815.334 84.9653 815.036 88.2507 814.694 91.92C814.438 95.5893 814.268 99.3867 814.182 103.312H792.166ZM791.654 194.96C791.398 189.669 791.228 184.037 791.142 178.064C791.057 172.005 791.014 165.947 791.014 159.888C791.014 151.952 791.1 144.229 791.27 136.72C791.441 129.211 791.654 122.384 791.91 116.24L813.926 116.112C813.585 120.037 813.372 124.901 813.286 130.704C813.201 136.421 813.158 142.437 813.158 148.752C813.158 154.981 813.201 161.125 813.286 167.184C813.372 173.243 813.457 178.747 813.542 183.696C813.713 188.56 813.841 192.315 813.926 194.96H791.654ZM864.316 196.496C857.49 196.496 851.516 195.387 846.396 193.168C841.362 190.949 837.18 187.92 833.852 184.08C830.524 180.155 828.05 175.675 826.428 170.64C824.807 165.605 823.996 160.315 823.996 154.768C823.996 149.136 824.978 143.931 826.94 139.152C828.988 134.288 831.762 130.064 835.26 126.48C838.844 122.896 843.026 120.123 847.804 118.16C852.583 116.112 857.788 115.088 863.42 115.088C869.308 115.088 874.77 116.112 879.804 118.16C884.839 120.208 889.234 123.067 892.988 126.736C896.743 130.405 899.644 134.715 901.692 139.664C903.826 144.613 904.892 149.989 904.892 155.792C904.892 168.677 901.351 178.704 894.268 185.872C887.186 192.955 877.202 196.496 864.316 196.496ZM864.188 175.76C870.418 175.76 875.154 174.011 878.396 170.512C881.724 167.013 883.388 161.979 883.388 155.408C883.388 149.52 881.596 144.784 878.012 141.2C874.428 137.616 869.735 135.824 863.932 135.824C860.434 135.824 857.234 136.763 854.332 138.64C851.431 140.432 849.084 142.864 847.292 145.936C845.586 148.923 844.732 152.251 844.732 155.92C844.732 159.163 845.372 162.32 846.652 165.392C848.018 168.464 850.151 170.981 853.052 172.944C855.954 174.821 859.666 175.76 864.188 175.76Z" fill="white"/>
<path d="M754.018 199.952C753.421 200.037 752.781 200.08 752.098 200.08C751.501 200.08 750.904 200.08 750.306 200.08C745.016 200.08 740.664 199.355 737.25 197.904C733.837 196.539 731.149 194.661 729.186 192.272C727.309 189.968 725.986 187.451 725.218 184.72C724.45 181.904 724.066 179.131 724.066 176.4C724.066 173.755 724.322 171.237 724.834 168.848C725.432 166.459 726.157 164.197 727.01 162.064C727.266 161.296 727.394 160.613 727.394 160.016C727.394 158.309 726.456 157.029 724.578 156.176C722.786 155.323 720.269 154.64 717.026 154.128L716.386 134.288C720.397 133.605 723.042 132.709 724.322 131.6C725.602 130.491 726.242 128.272 726.242 124.944C726.242 122.043 725.901 119.141 725.218 116.24C724.621 113.339 724.322 110.096 724.322 106.512C724.322 101.136 725.304 96.144 727.266 91.536C729.314 86.8427 732.386 83.0027 736.482 80.016C740.578 76.944 745.784 75.28 752.098 75.024L751.842 95.12C751.074 95.2053 750.093 95.504 748.898 96.016C747.789 96.528 746.765 97.4667 745.826 98.832C744.973 100.197 744.546 102.203 744.546 104.848C744.546 108.944 744.802 112.357 745.314 115.088C745.912 117.819 746.21 120.72 746.21 123.792C746.21 127.035 745.869 130.448 745.186 134.032C744.589 137.616 743.053 140.731 740.578 143.376C741.944 144.485 743.48 146.363 745.186 149.008C746.893 151.568 747.746 154.469 747.746 157.712C747.746 161.125 747.448 163.899 746.85 166.032C746.253 168.08 745.613 169.915 744.93 171.536C744.333 173.072 744.034 174.907 744.034 177.04C744.034 178.235 744.461 179.088 745.314 179.6C746.168 180.027 747.362 180.24 748.898 180.24C750.349 180.24 752.013 180.112 753.89 179.856L754.018 199.952ZM941.231 199.568L941.615 179.344C942.469 179.429 943.237 179.515 943.919 179.6C944.687 179.6 945.37 179.6 945.967 179.6C949.722 179.6 951.599 178.491 951.599 176.272C951.599 174.139 951.258 172.347 950.575 170.896C949.978 169.36 949.338 167.653 948.655 165.776C947.973 163.813 947.631 161.125 947.631 157.712C947.631 154.469 948.442 151.483 950.063 148.752C951.685 146.021 953.135 144.059 954.415 142.864C951.77 140.133 950.063 137.104 949.295 133.776C948.527 130.448 948.143 127.163 948.143 123.92C948.143 121.36 948.399 118.8 948.911 116.24C949.509 113.68 950.063 111.248 950.575 108.944C951.173 106.64 951.471 104.677 951.471 103.056C951.471 100.667 950.575 98.6613 948.783 97.04C947.077 95.4187 945.285 94.5653 943.407 94.48V74.384C949.466 74.64 954.586 76.2187 958.767 79.12C962.949 82.0213 966.106 85.648 968.239 90C970.458 94.352 971.567 98.8747 971.567 103.568C971.567 106.213 971.269 108.688 970.671 110.992C970.159 113.211 969.605 115.472 969.007 117.776C968.495 119.995 968.239 122.469 968.239 125.2C968.239 128.357 969.221 130.448 971.183 131.472C973.146 132.496 975.706 133.221 978.863 133.648L978.351 153.488C974.682 154 971.994 154.725 970.287 155.664C968.666 156.603 967.855 157.883 967.855 159.504C967.855 160.443 968.154 161.68 968.751 163.216C969.349 164.667 969.946 166.416 970.543 168.464C971.141 170.427 971.439 172.645 971.439 175.12C971.439 176.912 971.098 179.216 970.415 182.032C969.818 184.763 968.623 187.451 966.831 190.096C965.039 192.827 962.351 195.088 958.767 196.88C955.269 198.757 950.575 199.696 944.687 199.696C944.175 199.696 943.621 199.696 943.023 199.696C942.426 199.696 941.829 199.653 941.231 199.568Z" fill="#B3A2FF"/>
<path d="M792.5 81.5L816 82L814.5 103.5H791.5L792.5 81.5Z" fill="#5FFF3B"/>
</svg>
